<svg height="1515" viewBox="-40 1.053 274.334 165.413" width="2500" xmlns="http://www.w3.org/2000/svg">
  <g stroke-miterlimit="10" transform="translate(12.692943,10.962087)">
    <!-- cos -->
    <path d="m 15.173,50.253 c 0,0 3.087,-24.053 6.6,-33.943 3.278,-9.233 10.8,-15.057 10.8,-15.057 0,0 4.477,0.503 5.89,0.95 0.47,0.149 2.779,1.547 3.194,1.815 14.435,9.295 25.116,26.835 25.116,26.835 0,0 14.19,-2.228 23.4,-2.374 10.616,-0.168 27.4,1.57 27.4,1.57 0,0 10.391,-17.182 24.435,-26.288 0.404,-0.262 2.65,-1.632 3.108,-1.778 1.374,-0.438 5.73,-0.93 5.73,-0.93 0,0 8.318,9.506 11.507,18.55 3.417,9.688 3.42,28.25 3.42,28.25 19.08725,16.503588 6.51822,60.62135 -0.0996,66.21355 -2.69733,4.05366 -76.299738,4.28402 -76.299738,4.28402 0,0 -37.210099,0.42026 -69.585408,-3.92902 C -0.7175244,103.91185 6.809,50.479362 15.173,50.253 Z" fill="#ffbe00" stroke="#c9a02a" stroke-linecap="round" stroke-width="2"/>
    <!-- ulls -->
    <path d="m 49.816428,59.361519 a 7.25,7.25 0 1 1 14.5,0 7.25,7.25 0 0 1 -14.5,0 z m 56.250002,0 a 7.25,7.25 0 1 1 14.5,0 7.25,7.25 0 0 1 -14.5,0 z" fill="#674c00"/>
    <!-- boca -->
    <path d="m 92.316428,58.611519 c 0,0 0.01,4.58 -1.731,5.65 -0.87,0.534 0.117,0.238 -3.334,0.733 -1.338,-0.099 -2.221,-0.715 -2.875,-1.887 -0.927,-1.66 -0.254,-4.332 -1.027,-4.434 -0.643,0.025 -0.016,1.796 -0.395,3.055 -0.48,1.592 -1.925,2.438 -3.552,2.786 -1.583,0.339 -3.636,0.161 -4.522,-1.195 -0.86,-1.315 -0.314,-5.208 -0.314,-5.208" fill="none" stroke="#674c00" stroke-linecap="round" stroke-width="3"/>
    <!-- orelles -->
    <path d="m 139.93362,35.86003 c 0,0 0.74338,-7.34103 2.64838,-11.06803 2.583,-5.054 8.12,-10.2 8.12,-10.2 0,0 5.593,2.038 7.523,10.242 2.333,7.32 1.726,19.508 1.726,19.508 0,0 -0.254,0.708 -0.779,0.738 -0.403,0.023 -1.2,-0.505 -1.581,-0.638 0,0 -12.662,-4.73 -15.482,-5.873 -2.44,-0.631 -2.17538,-2.70897 -2.17538,-2.70897 z M 42.614,38.319 c -2.82,1.143 -15.482,5.873 -15.482,5.873 -0.555,-0.05 -0.98,0.365 -1.528,0.266 -0.428,-0.078 -0.832,-0.866 -0.832,-0.866 0,0 -0.606,-11.687 1.726,-19.008 1.68,-8.204 7.524,-10.242 7.524,-10.242 0,0 5.536,5.146 8.12,10.2 1.904,3.727 3.63,11.05 3.63,11.05 0,0 -0.042,0.945 -0.287,1.189 -0.736,0.731 -1.676,1.054 -2.87,1.538 z" fill="#ffd4e5" stroke="#ffd4e5" stroke-linecap="round" stroke-width="1.5"/>
  </g>
</svg>